# xmcd CD database file
#
# Track frame offsets:
#	150
#	16736
#	40637
#	59670
#	81415
#	105100
#	124440
#	143173
#	160477
#	186408
#	223703
#
# Disc length: 3228 seconds
#
# Revision: 3
# Processed by: cddbd v1.5.2PL0 Copyright (c) Steve Scherf et al.
# Submitted via: CDex 1.70beta2
#
DISCID=9a0c9a0b
DTITLE=Die Form - Photogrammes
DYEAR=2001
DGENRE=Fetish
TTITLE0=Experiment With Tears
TTITLE1=Remission
TTITLE2=I Have Lost Your Eyes
TTITLE3=Will You Live Again?
TTITLE4=Long-Term Survivor
TTITLE5=Shadows Of Death
TTITLE6=Cathodic Funeral
TTITLE7=Praise Of Stake
TTITLE8=Immaculée
TTITLE9=La Fille Aux Yeux Morts
TTITLE10=Sadia (Remix)
EXTD=YEAR: 2001
EXTT0=
EXTT1=
EXTT2=
EXTT3=
EXTT4=
EXTT5=
EXTT6=
EXTT7=
EXTT8=
EXTT9=
EXTT10=
PLAYORDER=
